<?xml version="1.0" encoding="UTF-8" standalone="no"?>
<!-- Generator: Adobe Illustrator 9.0, SVG Export Plug-In  -->

<svg
   xmlns:dc="http://purl.org/dc/elements/1.1/"
   xmlns:cc="http://creativecommons.org/ns#"
   xmlns:rdf="http://www.w3.org/1999/02/22-rdf-syntax-ns#"
   xmlns:svg="http://www.w3.org/2000/svg"
   xmlns="http://www.w3.org/2000/svg"
   xmlns:sodipodi="http://sodipodi.sourceforge.net/DTD/sodipodi-0.dtd"
   xmlns:inkscape="http://www.inkscape.org/namespaces/inkscape"
   width="48"
   height="48"
   viewBox="0 0 38.4 38.4"
   xml:space="preserve"
   id="svg2"
   version="1.1"
   inkscape:version="0.47 r22583"
   sodipodi:docname="High-contrast-document-save-as.svg"
   inkscape:export-filename="/home/phoenixx/workspace/fsmi_protocols/images/file_not_disclosed.png"
   inkscape:export-xdpi="18"
   inkscape:export-ydpi="18"><metadata
   id="metadata38"><rdf:RDF><cc:Work
       rdf:about=""><dc:format>image/svg+xml</dc:format><dc:type
         rdf:resource="http://purl.org/dc/dcmitype/StillImage" /><dc:title></dc:title></cc:Work></rdf:RDF></metadata><defs
   id="defs36"><inkscape:perspective
     sodipodi:type="inkscape:persp3d"
     inkscape:vp_x="0 : 30 : 1"
     inkscape:vp_y="0 : 1000 : 0"
     inkscape:vp_z="60 : 30 : 1"
     inkscape:persp3d-origin="30 : 20 : 1"
     id="perspective40" /></defs><sodipodi:namedview
   pagecolor="#ffffff"
   bordercolor="#666666"
   borderopacity="1"
   objecttolerance="10"
   gridtolerance="10"
   guidetolerance="10"
   inkscape:pageopacity="0"
   inkscape:pageshadow="2"
   inkscape:window-width="1131"
   inkscape:window-height="791"
   id="namedview34"
   showgrid="false"
   showguides="true"
   inkscape:guide-bbox="true"
   inkscape:zoom="7.87"
   inkscape:cx="27.460937"
   inkscape:cy="27.960937"
   inkscape:window-x="0"
   inkscape:window-y="0"
   inkscape:window-maximized="0"
   inkscape:current-layer="svg2" />
	<g
   id="Layer_x0020_4"
   style="fill-rule:nonzero;stroke:#000000;stroke-miterlimit:4"
   transform="translate(-4.6779661,-6.0137747)">
		<g
   style="stroke:none"
   id="g5">
			<path
   style="fill:none;stroke:#ffffff;stroke-width:12.33749962;stroke-linecap:round;stroke-linejoin:round"
   d="M 37.3,37 H 11.7 L 8.2,33.5 V 9.4 H 37.4 V 37 z"
   id="path7" />
			<path
   style="fill:none;stroke:#000000;stroke-width:6.16879988;stroke-linecap:round;stroke-linejoin:round"
   d="M 37.3,37 H 11.7 L 8.2,33.5 V 9.4 H 37.4 V 37 z"
   id="path9" />
			<path
   d="M 37.3,37 H 11.7 L 8.2,33.5 V 9.4 H 37.4 V 37 z"
   id="path11" />
			<path
   style="fill:#ffffff;stroke:#000000;stroke-width:1.54219997"
   d="m 31,37.2 c 0,1 -0.8,1.9 -1.9,1.9 H 13.4 c -1,0 -1.9,-0.8 -1.9,-1.9 v -10 c 0,-1 0.8,-1.9 1.9,-1.9 h 15.7 c 1,0 1.9,0.8 1.9,1.9 v 10 z"
   id="path13" />
			<path
   d="M 20.6,36.4 H 14.9 V 28 h 5.7 v 8.4 z"
   id="path15" />
			<path
   style="fill:#ffffff;stroke:#000000;stroke-width:1.54219997"
   d="M 35.6,22.9 H 10.2 V 7.8 H 35.6 V 23 z"
   id="path17" />
			<path
   style="fill:none;stroke:#ffffff;stroke-width:12.33749962;stroke-linejoin:round"
   d="m 39.9,33.6 -17,-17 -9.6,-3.8 3.4,10.8 16.5,16.6 6.7,-6.7 z"
   id="path19" />
			<path
   style="fill:none;stroke:#000000;stroke-width:6.16879988;stroke-linejoin:round"
   d="m 39.9,33.6 -17,-17 -9.6,-3.8 3.4,10.8 16.5,16.6 6.7,-6.7 z"
   id="path21" />
			<path
   d="m 39.9,33.6 -17,-17 -9.6,-3.8 3.4,10.8 16.5,16.6 6.7,-6.7 z"
   id="path23" />
			<path
   d="m 17.4,14.1 -3.1,3.1 -1.4,-4.7 4.5,1.7 z"
   id="path25" />
			<path
   style="fill:none;stroke:#000000;stroke-width:1.54219997"
   d="m 16.2,23.4 3.8,-0.3 3,-3 0.4,-3.5"
   id="path27" />
			<path
   style="fill:#ffffff"
   d="m 17.2,14.3 -2.6,2.6 2,6.5 3.3,-0.3 3,-3 0.4,-3 -6.2,-2.7 z"
   id="path29" />
		</g>
	</g>
	<g
   id="crop_x0020_marks"
   style="fill-rule:nonzero;stroke:#000000;stroke-miterlimit:4"
   transform="translate(0,-9.6)">
		<path
   style="fill:none;stroke:none"
   d="M 48,48 H 0 V 0 h 48 v 48 z"
   id="path32" />
	</g>
</svg>